<svg width="153" height="32" viewBox="0 0 153 32" fill="none" xmlns="http://www.w3.org/2000/svg">
<path fill-rule="evenodd" clip-rule="evenodd" d="M19.6427 21.2433C22.4947 21.2433 24.8068 18.9313 24.8068 16.0792C24.8068 13.2271 22.4947 10.915 19.6427 10.915C16.7906 10.915 14.4785 13.2271 14.4785 16.0792C14.4785 18.9313 16.7906 21.2433 19.6427 21.2433ZM19.6023 20.2077C21.8659 20.2077 23.7009 18.3728 23.7009 16.1092C23.7009 13.8457 21.8659 12.0107 19.6023 12.0107C17.3388 12.0107 15.5038 13.8457 15.5038 16.1092C15.5038 18.3728 17.3388 20.2077 19.6023 20.2077Z" fill="#68A17E"/>
<circle cx="19.6027" cy="16.1085" r="2.45912" fill="#68A17E"/>
<path fill-rule="evenodd" clip-rule="evenodd" d="M14.4793 15.6757C14.4793 15.6757 1.86016 13.3717 6.14625 5.63298C10.4323 -2.10575 15.0183 2.40601 15.6172 4.19624C16.216 5.98647 15.3241 10.1608 17.4367 11.4157C17.4367 11.4157 16.3086 11.9349 15.5044 13.0524C14.7003 14.1699 14.4793 15.6757 14.4793 15.6757Z" fill="#68A17E"/>
<path fill-rule="evenodd" clip-rule="evenodd" d="M24.8076 16.3122C24.8076 16.3122 37.2369 18.6283 32.9508 26.367C28.6647 34.1058 24.0787 29.594 23.4799 27.8038C22.881 26.0135 23.954 22.0142 21.8414 20.7593C21.8414 20.7593 23.226 20.0015 23.9724 18.7462C24.7189 17.4909 24.8076 16.3122 24.8076 16.3122Z" fill="#68A17E"/>
<path fill-rule="evenodd" clip-rule="evenodd" d="M20.0636 10.9342C20.0636 10.9342 22.3627 -1.65135 30.1014 2.63474C37.8401 6.92082 33.3284 11.5068 31.5381 12.1057C29.7479 12.7045 25.6329 11.9079 24.3781 14.0205C24.3781 14.0205 23.7549 12.8092 22.6229 12.0104C21.4909 11.2116 20.0636 10.9342 20.0636 10.9342Z" fill="#68A17E"/>
<path fill-rule="evenodd" clip-rule="evenodd" d="M19.2563 21.2069C19.2563 21.2069 17.0123 33.6446 9.27361 29.3586C1.53488 25.0725 6.04664 20.4865 7.83687 19.8876C9.62709 19.2888 13.6659 20.2996 14.9208 18.1869C14.9208 18.1869 15.7331 19.6662 16.681 20.3003C17.629 20.9345 19.2563 21.2069 19.2563 21.2069Z" fill="#68A17E"/>
<path d="M59.3018 26.5L51.3933 5.84342H55.4361L63.5807 26.5H59.3018ZM42.9831 26.5L51.1277 5.84342H55.1705L47.262 26.5H42.9831ZM46.8194 21.9556V18.3849H59.774V21.9556H46.8194Z" fill="#68A17E"/>
<path d="M79.3484 7.65836C80.45 7.65836 81.3758 7.86492 82.1255 8.27805C82.8753 8.67588 83.4797 9.22673 83.9387 9.93058C84.413 10.6344 84.7497 11.4454 84.9486 12.3635C85.1628 13.2815 85.2699 14.2685 85.2699 15.3242C85.2699 16.6095 85.1322 17.803 84.8568 18.9047C84.5967 19.9911 84.1988 20.9398 83.6633 21.7507C83.143 22.5464 82.4774 23.1661 81.6665 23.6098C80.8708 24.0536 79.9298 24.2754 78.8434 24.2754C78.0172 24.2754 77.2062 24.153 76.4105 23.9082C75.6149 23.6634 74.8957 23.3114 74.2531 22.8524L75.6302 20.9245C76.1045 21.2611 76.6171 21.5136 77.1679 21.6819C77.7341 21.8502 78.2543 21.9343 78.7287 21.9343C80.0599 21.9343 81.0927 21.3605 81.8271 20.213C82.5616 19.0654 82.8982 17.2828 82.837 14.8652L83.3879 15.2783C83.0206 16.1505 82.4545 16.8544 81.6894 17.3899C80.9244 17.9101 80.014 18.1703 78.9582 18.1703C77.933 18.1703 77.0226 17.9407 76.2269 17.4817C75.4466 17.0074 74.8269 16.3724 74.3678 15.5767C73.9241 14.7657 73.7022 13.8553 73.7022 12.8455C73.7022 11.8356 73.9317 10.9405 74.3908 10.1601C74.8651 9.37974 75.5231 8.76769 76.3646 8.32396C77.2215 7.88022 78.2161 7.65836 79.3484 7.65836ZM79.3254 9.95353C78.7593 9.95353 78.2467 10.0836 77.7876 10.3437C77.3439 10.5885 76.992 10.9405 76.7319 11.3995C76.487 11.8432 76.3646 12.3558 76.3646 12.9373C76.3646 13.5187 76.487 14.0389 76.7319 14.498C76.992 14.957 77.3439 15.3166 77.7876 15.5767C78.2467 15.8368 78.7593 15.9669 79.3254 15.9669C79.9221 15.9669 80.4424 15.8368 80.8861 15.5767C81.3452 15.3166 81.6971 14.957 81.9419 14.498C82.202 14.0389 82.3321 13.5187 82.3321 12.9373C82.3321 12.3558 82.202 11.8432 81.9419 11.3995C81.6971 10.9405 81.3452 10.5885 80.8861 10.3437C80.4424 10.0836 79.9221 9.95353 79.3254 9.95353ZM93.5835 24.2754C92.3288 24.2754 91.2118 23.9235 90.2325 23.2196C89.2532 22.5005 88.4805 21.5212 87.9144 20.2818C87.3635 19.0271 87.0881 17.5888 87.0881 15.9669C87.0881 14.345 87.3635 12.9143 87.9144 11.6749C88.4805 10.4202 89.2456 9.44094 90.2096 8.73709C91.1888 8.01793 92.3135 7.65836 93.5835 7.65836C94.8535 7.65836 95.9781 8.01793 96.9574 8.73709C97.9366 9.44094 98.7017 10.4202 99.2525 11.6749C99.8187 12.9143 100.102 14.345 100.102 15.9669C100.102 17.5888 99.8187 19.0271 99.2525 20.2818C98.7017 21.5212 97.9366 22.5005 96.9574 23.2196C95.9934 23.9235 94.8688 24.2754 93.5835 24.2754ZM93.6064 21.8655C94.3562 21.8655 95.0218 21.613 95.6032 21.1081C96.2 20.6031 96.659 19.9069 96.9803 19.0195C97.3169 18.132 97.4853 17.1145 97.4853 15.9669C97.4853 14.8193 97.3169 13.8018 96.9803 12.9143C96.659 12.0115 96.2 11.3077 95.6032 10.8027C95.0218 10.2978 94.3485 10.0453 93.5835 10.0453C92.8184 10.0453 92.1451 10.2978 91.5637 10.8027C90.9823 11.3077 90.5232 12.0039 90.1866 12.8914C89.8653 13.7788 89.7046 14.804 89.7046 15.9669C89.7046 17.1145 89.8653 18.132 90.1866 19.0195C90.5232 19.9069 90.9823 20.6031 91.5637 21.1081C92.1604 21.613 92.8414 21.8655 93.6064 21.8655ZM101.183 25.1017L104.803 14.2029H106.049L102.455 25.1017H101.183ZM109.017 24V15.5144L109.136 14.8193H110.277V24H109.017ZM106.985 17.3243V16.1571C107.177 16.1658 107.4 16.1046 107.653 15.9734C107.916 15.8423 108.178 15.6718 108.44 15.4619C108.703 15.2521 108.934 15.0335 109.136 14.8062L109.936 15.6718C109.638 15.9866 109.328 16.2707 109.004 16.5243C108.681 16.7778 108.349 16.979 108.008 17.1276C107.675 17.2762 107.334 17.3418 106.985 17.3243ZM115.916 24.1574C115.208 24.1574 114.579 23.9563 114.028 23.5541C113.477 23.1431 113.044 22.5835 112.729 21.8753C112.423 21.1584 112.27 20.3365 112.27 19.4097C112.27 18.4828 112.423 17.6653 112.729 16.9571C113.044 16.2401 113.473 15.6805 114.015 15.2783C114.565 14.8674 115.199 14.6619 115.916 14.6619C116.633 14.6619 117.263 14.8674 117.805 15.2783C118.356 15.6805 118.789 16.2401 119.103 16.9571C119.418 17.6653 119.575 18.4828 119.575 19.4097C119.575 20.3365 119.418 21.1584 119.103 21.8753C118.797 22.5835 118.369 23.1431 117.818 23.5541C117.267 23.9563 116.633 24.1574 115.916 24.1574ZM115.916 22.977C116.38 22.977 116.791 22.824 117.149 22.518C117.516 22.2119 117.801 21.7923 118.002 21.2589C118.203 20.7256 118.303 20.1091 118.303 19.4097C118.303 18.7102 118.203 18.0938 118.002 17.5604C117.801 17.0183 117.516 16.5942 117.149 16.2882C116.791 15.9822 116.38 15.8292 115.916 15.8292C115.453 15.8292 115.042 15.9822 114.683 16.2882C114.325 16.5942 114.045 17.0183 113.844 17.5604C113.643 18.0938 113.542 18.7102 113.542 19.4097C113.542 20.1091 113.643 20.7299 113.844 21.272C114.045 21.8054 114.325 22.2251 114.683 22.5311C115.042 22.8284 115.453 22.977 115.916 22.977ZM124.344 24.1574C123.636 24.1574 123.006 23.9563 122.455 23.5541C121.904 23.1431 121.472 22.5835 121.157 21.8753C120.851 21.1584 120.698 20.3365 120.698 19.4097C120.698 18.4828 120.851 17.6653 121.157 16.9571C121.472 16.2401 121.9 15.6805 122.442 15.2783C122.993 14.8674 123.627 14.6619 124.344 14.6619C125.061 14.6619 125.69 14.8674 126.233 15.2783C126.783 15.6805 127.216 16.2401 127.531 16.9571C127.846 17.6653 128.003 18.4828 128.003 19.4097C128.003 20.3365 127.846 21.1584 127.531 21.8753C127.225 22.5835 126.796 23.1431 126.246 23.5541C125.695 23.9563 125.061 24.1574 124.344 24.1574ZM124.344 22.977C124.807 22.977 125.218 22.824 125.577 22.518C125.944 22.2119 126.228 21.7923 126.429 21.2589C126.63 20.7256 126.731 20.1091 126.731 19.4097C126.731 18.7102 126.63 18.0938 126.429 17.5604C126.228 17.0183 125.944 16.5942 125.577 16.2882C125.218 15.9822 124.807 15.8292 124.344 15.8292C123.881 15.8292 123.47 15.9822 123.111 16.2882C122.753 16.5942 122.473 17.0183 122.272 17.5604C122.071 18.0938 121.97 18.7102 121.97 19.4097C121.97 20.1091 122.071 20.7299 122.272 21.272C122.473 21.8054 122.753 22.2251 123.111 22.5311C123.47 22.8284 123.881 22.977 124.344 22.977ZM129.493 26.6231V17.4424H130.66L130.739 18.649V26.6231H129.493ZM132.89 24.1574C132.339 24.1574 131.858 24.0131 131.447 23.7246C131.045 23.436 130.734 23.0338 130.516 22.518C130.297 22.0021 130.188 21.4032 130.188 20.7212C130.188 20.0304 130.297 19.4315 130.516 18.9244C130.734 18.4085 131.045 18.0063 131.447 17.7178C131.858 17.4292 132.339 17.285 132.89 17.285C133.475 17.285 133.991 17.4292 134.437 17.7178C134.883 18.0063 135.228 18.4085 135.473 18.9244C135.727 19.4315 135.854 20.0304 135.854 20.7212C135.854 21.4032 135.727 22.0021 135.473 22.518C135.228 23.0338 134.883 23.436 134.437 23.7246C133.991 24.0131 133.475 24.1574 132.89 24.1574ZM132.588 23.0295C132.981 23.0295 133.327 22.9333 133.624 22.7409C133.921 22.5398 134.153 22.2688 134.319 21.9278C134.494 21.578 134.581 21.1758 134.581 20.7212C134.581 20.2665 134.498 19.8687 134.332 19.5277C134.166 19.1779 133.934 18.9069 133.637 18.7145C133.34 18.5134 132.994 18.4129 132.601 18.4129C132.243 18.4129 131.919 18.5134 131.63 18.7145C131.351 18.9069 131.132 19.1779 130.975 19.5277C130.817 19.8774 130.739 20.2753 130.739 20.7212C130.739 21.1758 130.817 21.578 130.975 21.9278C131.132 22.2688 131.351 22.5398 131.63 22.7409C131.91 22.9333 132.229 23.0295 132.588 23.0295ZM139.746 24.1574C139.09 24.1574 138.583 23.9913 138.224 23.659C137.866 23.318 137.686 22.8327 137.686 22.2032V15.3964H138.932V22.0196C138.932 22.3431 139.011 22.5923 139.168 22.7672C139.335 22.9333 139.571 23.0164 139.877 23.0164C139.964 23.0164 140.06 22.9989 140.165 22.9639C140.27 22.9289 140.397 22.859 140.546 22.754L141.018 23.7246C140.79 23.8732 140.572 23.9825 140.362 24.0525C140.161 24.1224 139.955 24.1574 139.746 24.1574ZM136.572 18.5178V17.4424H140.795V18.5178H136.572ZM144.595 24.1574C144.132 24.1574 143.717 24.0874 143.35 23.9475C142.991 23.8076 142.685 23.6197 142.431 23.3836C142.187 23.1475 142.003 22.8808 141.881 22.5835L142.956 22.1114C143.096 22.3824 143.306 22.6054 143.586 22.7803C143.865 22.9551 144.176 23.0426 144.517 23.0426C144.893 23.0426 145.203 22.9726 145.448 22.8327C145.693 22.6928 145.815 22.4961 145.815 22.2426C145.815 21.9977 145.723 21.8054 145.54 21.6655C145.356 21.5256 145.089 21.4119 144.74 21.3245L144.123 21.1671C143.511 21.001 143.035 20.7518 142.694 20.4195C142.361 20.0873 142.195 19.7113 142.195 19.2916C142.195 18.6533 142.401 18.1593 142.812 17.8096C143.223 17.4598 143.83 17.285 144.635 17.285C145.028 17.285 145.387 17.3418 145.71 17.4555C146.043 17.5691 146.322 17.7309 146.55 17.9407C146.786 18.1506 146.952 18.3998 147.048 18.6883L145.999 19.1605C145.894 18.8982 145.715 18.7058 145.461 18.5834C145.208 18.4522 144.91 18.3867 144.569 18.3867C144.219 18.3867 143.944 18.4653 143.743 18.6227C143.542 18.7714 143.441 18.9812 143.441 19.2523C143.441 19.4009 143.524 19.5452 143.69 19.6851C143.865 19.8162 144.119 19.9255 144.451 20.013L145.159 20.1835C145.588 20.2884 145.942 20.4501 146.222 20.6687C146.502 20.8786 146.711 21.119 146.851 21.3901C146.991 21.6524 147.061 21.9278 147.061 22.2163C147.061 22.6098 146.952 22.9551 146.733 23.2524C146.523 23.541 146.23 23.7639 145.855 23.9213C145.487 24.0787 145.068 24.1574 144.595 24.1574Z" fill="#68A17E"/>
</svg>
