<svg xmlns="http://www.w3.org/2000/svg" width="18.045" height="17.988" viewBox="0 0 18.045 17.988"><g fill="#E5726B" fill-rule="evenodd"><path d="M8.99582484,5.89218584 C10.7355218,5.89218584 12.1458248,7.30248888 12.1458248,9.04218584 C12.1458248,10.7818828 10.7355218,12.1921858 8.99582484,12.1921858 C7.25612788,12.1921858 5.84582484,10.7818828 5.84582484,9.04218584 C5.84582484,7.30248888 7.25612788,5.89218584 8.99582484,5.89218584 Z M8.97112727,6.56059166 C7.5904154,6.56059166 6.47112727,7.67987979 6.47112727,9.06059166 C6.47112727,10.4413035 7.5904154,11.5605917 8.97112727,11.5605917 C10.3518391,11.5605917 11.4711273,10.4413035 11.4711273,9.06059166 C11.4711273,7.67987979 10.3518391,6.56059166 8.97112727,6.56059166 Z"/><circle cx="8.971" cy="9.061" r="1.5"/><path d="M5.84582484,8.7963543 C0.714253053,7.85943092 -0.980064216,5.81749058 0.762873035,2.67053326 C3.37727891,-2.04990271 6.17462379,0.702160608 6.53990736,1.79415597 C6.90519092,2.88615133 6.36110783,5.43241594 7.64975551,6.19783963 C7.19101866,6.40895881 6.79814259,6.74174075 6.47112727,7.19618546 C6.14411196,7.65063016 5.93567782,8.18401978 5.84582484,8.7963543 Z"/><path fill-opacity=".22" d="M15.9740459,17.9879657 C10.9196665,17.0461201 9.26394541,15.0017186 11.0068827,11.8547613 C13.6212885,7.13432533 16.4186334,9.88638865 16.783917,10.978384 C17.1492006,12.0703794 16.4947145,14.5098864 17.7833622,15.2753101 C17.2203151,15.5834721 16.7870195,15.9927874 16.4834753,16.5032561 C16.1799312,17.0137248 16.0101214,17.508628 15.9740459,17.9879657 Z" transform="rotate(180 14.06 13.586)"/><path fill-opacity=".22" d="M15.5707459,8.37878816 C10.4528252,7.44385546 8.76533351,5.40291045 10.5082708,2.25595313 C13.1226766,-2.46448284 15.9200215,0.287580479 16.2853051,1.37957584 C16.6505886,2.4715712 16.1646728,4.98162248 17.4533205,5.74704617 C16.9607258,6.00044827 16.5520192,6.3573143 16.2272005,6.81764428 C15.9023819,7.27797425 15.6835636,7.79835554 15.5707459,8.37878816 Z" transform="rotate(90 13.649 3.982)"/><path fill-opacity=".22" d="M6.27994838,18.4505101 C1.22215313,17.538022 -0.435275876,15.5082992 1.30766137,12.3613419 C3.92206725,7.64090594 6.71941213,10.3929693 7.0846957,11.4849646 C7.44997926,12.57696 6.83342988,15.0405605 8.12207756,15.8059842 C7.52055193,16.1362929 7.09084521,16.4941962 6.83295742,16.8796941 C6.57506962,17.265192 6.39073328,17.7887973 6.27994838,18.4505101 Z" transform="rotate(-90 4.38 14.07)"/></g></svg>